# Local chef-knife blade visual mesh inspired by wecook_assets/data/objects/knife.stl proportions.
# Units are meters in the right_tool_body frame: x=thickness, y=blade height, z=tool length.
# Collision remains a separate invisible MuJoCo box.

o blade
v -0.0020 -0.014 0.050
v  0.0020 -0.014 0.050
v  0.0020  0.014 0.050
v -0.0020  0.014 0.050
v -0.0020 -0.012 0.188
v  0.0020 -0.012 0.188
v  0.0020  0.010 0.188
v -0.0020  0.010 0.188
v -0.0020  0.014 0.204
v  0.0020  0.014 0.204
v -0.0020 -0.010 0.044
v  0.0020 -0.010 0.044
v  0.0020  0.010 0.044
v -0.0020  0.010 0.044
f 1 2 3 4
f 5 8 7 6
f 1 5 6 2
f 2 6 7 10 3
f 3 10 9 4
f 4 9 8 5 1
f 7 8 9 10
f 11 12 2 1
f 12 13 3 2
f 13 14 4 3
f 14 11 1 4
f 11 14 13 12
